<mxfile host="app.diagrams.net" modified="2024-05-06T10:38:23.619Z" agent="Mozilla/5.0 (Windows NT 10.0; Win64; x64) AppleWebKit/537.36 (KHTML, like Gecko) Chrome/124.0.0.0 Safari/537.36" version="24.3.1" etag="NiLhr0lmZEjvpsKNDFb8" type="github">
  <diagram name="Page-1" id="saG9jUV98kwQ_-RW-GSf">
    <mxGraphModel>
      <root>
        <mxCell id="0" />
        <mxCell id="1" parent="0" />
      </root>
    </mxGraphModel>
  </diagram>
</mxfile>
